<svg width="105" height="115" viewBox="0 0 105 115" fill="none" xmlns="http://www.w3.org/2000/svg">
<path d="M94.9813 108.471L97.9271 105.525L103.819 111.417L100.873 114.362L94.9813 108.471ZM95.7188 94.4417L101.61 88.55L104.556 91.4958L98.6646 97.3875L95.7188 94.4417ZM78.7812 111.383L84.6729 105.492L87.6188 108.437L81.7271 114.329L78.7812 111.383ZM87.5271 12.5C84.0813 12.5 81.2771 9.69583 81.2771 6.25C81.2771 2.80417 84.0813 0 87.5271 0C90.9729 0 93.7771 2.80417 93.7771 6.25C93.7771 9.69583 90.9729 12.5 87.5271 12.5ZM87.5271 4.16667C86.9734 4.16777 86.4429 4.38876 86.0522 4.78103C85.6615 5.17329 85.4426 5.70469 85.4438 6.25833C85.4449 6.81197 85.6658 7.3425 86.0581 7.7332C86.4504 8.1239 86.9818 8.34277 87.5354 8.34167C88.0891 8.34056 88.6196 8.11957 89.0103 7.7273C89.401 7.33504 89.6199 6.80364 89.6188 6.25C89.6177 5.69636 89.3967 5.16584 89.0044 4.77513C88.6121 4.38443 88.0807 4.16556 87.5271 4.16667Z" fill="#A4AFC1"/>
<path d="M45.8607 108.262C20.5898 108.262 0.0273438 87.6999 0.0273438 62.429C0.0273438 37.1582 20.5898 16.5957 45.8607 16.5957C54.6523 16.5957 63.2023 19.104 70.5857 23.8415L67.2065 29.0999C60.8382 25.0113 53.4285 22.8403 45.8607 22.8457C24.0357 22.8457 6.27734 40.604 6.27734 62.429C6.27734 84.254 24.0357 102.012 45.8607 102.012C67.6857 102.012 85.444 84.254 85.444 62.429C85.444 61.138 85.3828 59.8476 85.2607 58.5624L91.4815 57.9582C91.6232 59.4332 91.694 60.9207 91.694 62.429C91.694 87.6999 71.1315 108.262 45.8607 108.262Z" fill="#EFA44A"/>
<path d="M51.0697 72.8454C50.6592 72.8464 50.2527 72.7659 49.8736 72.6085C49.4945 72.4512 49.1504 72.2201 48.8613 71.9287L30.1113 53.1787L34.5322 48.7579L51.0738 65.2995L94.6947 21.6787L99.1155 26.0995L53.2822 71.9329C52.6947 72.5182 51.8989 72.8464 51.0697 72.8454Z" fill="#EFA44A"/>
</svg>
