<svg width="248" height="152" viewBox="0 0 248 152" fill="none" xmlns="http://www.w3.org/2000/svg">
<path fill-rule="evenodd" clip-rule="evenodd" d="M237.605 22.3247C243.346 22.3247 248 26.9891 248 32.743C248 38.4968 243.346 43.1613 237.605 43.1613H178.204C183.945 43.1613 188.599 47.8257 188.599 53.5795C188.599 59.3334 183.945 63.9978 178.204 63.9978H210.874C216.615 63.9978 221.269 68.6622 221.269 74.4161C221.269 80.1699 216.615 84.8344 210.874 84.8344H195.766C188.527 84.8344 182.659 89.4988 182.659 95.2526C182.659 99.0886 185.629 102.561 191.569 105.671C197.31 105.671 201.964 110.335 201.964 116.089C201.964 121.843 197.31 126.507 191.569 126.507H68.3114C62.5703 126.507 57.9162 121.843 57.9162 116.089C57.9162 110.335 62.5703 105.671 68.3114 105.671H10.3952C4.65409 105.671 0 101.007 0 95.2526C0 89.4988 4.65409 84.8344 10.3952 84.8344H69.7964C75.5375 84.8344 80.1916 80.1699 80.1916 74.4161C80.1916 68.6622 75.5375 63.9978 69.7964 63.9978H32.6707C26.9295 63.9978 22.2754 59.3334 22.2754 53.5795C22.2754 47.8257 26.9295 43.1613 32.6707 43.1613H92.0719C86.3307 43.1613 81.6766 38.4968 81.6766 32.743C81.6766 26.9891 86.3307 22.3247 92.0719 22.3247H237.605ZM237.605 63.9978C243.346 63.9978 248 68.6622 248 74.4161C248 80.1699 243.346 84.8344 237.605 84.8344C231.864 84.8344 227.21 80.1699 227.21 74.4161C227.21 68.6622 231.864 63.9978 237.605 63.9978Z" fill="#FDF8F2"/>
<path fill-rule="evenodd" clip-rule="evenodd" d="M158.412 20.8365L172.226 121.809L173.467 131.939C173.867 135.202 171.551 138.172 168.295 138.573L81.3313 149.274C78.0752 149.675 75.1114 147.354 74.7116 144.091L61.3229 34.807C61.123 33.1753 62.2808 31.6901 63.9089 31.4898C63.9191 31.4885 63.9294 31.4873 63.9397 31.4861L71.1546 30.675M76.9882 30.0191L83.8001 29.2533L76.9882 30.0191Z" fill="white"/>
<path d="M160.255 20.5833C160.116 19.5653 159.178 18.8534 158.16 18.9932C157.142 19.133 156.43 20.0716 156.569 21.0896L160.255 20.5833ZM172.226 121.809L174.072 121.581C174.071 121.573 174.07 121.564 174.069 121.555L172.226 121.809ZM173.467 131.939L175.313 131.711L173.467 131.939ZM168.295 138.573L168.521 140.42L168.295 138.573ZM81.3313 149.274L81.5576 151.121L81.3313 149.274ZM74.7116 144.091L76.5581 143.864L74.7116 144.091ZM61.3229 34.807L59.4764 35.0342L61.3229 34.807ZM63.9397 31.4861L64.1466 33.335L63.9397 31.4861ZM71.3614 32.5239C72.3824 32.4091 73.1175 31.4883 73.0033 30.4672C72.8891 29.4461 71.9687 28.7114 70.9477 28.8261L71.3614 32.5239ZM76.7814 28.1702C75.7604 28.285 75.0253 29.2058 75.1395 30.2269C75.2537 31.248 76.1741 31.9828 77.1951 31.868L76.7814 28.1702ZM84.007 31.1022C85.028 30.9874 85.7631 30.0666 85.6489 29.0454C85.5347 28.0243 84.6143 27.2896 83.5933 27.4044L84.007 31.1022ZM156.569 21.0896L170.383 122.062L174.069 121.555L160.255 20.5833L156.569 21.0896ZM170.379 122.036L171.62 132.166L175.313 131.711L174.072 121.581L170.379 122.036ZM171.62 132.166C171.896 134.413 170.301 136.452 168.069 136.726L168.521 140.42C172.801 139.893 175.838 135.991 175.313 131.711L171.62 132.166ZM168.069 136.726L81.1051 147.428L81.5576 151.121L168.521 140.42L168.069 136.726ZM81.1051 147.428C78.8725 147.703 76.8334 146.111 76.5581 143.864L72.8651 144.318C73.3894 148.598 77.2779 151.648 81.5576 151.121L81.1051 147.428ZM76.5581 143.864L63.1694 34.5798L59.4764 35.0342L72.8651 144.318L76.5581 143.864ZM63.1694 34.5798C63.094 33.9642 63.5305 33.4108 64.1351 33.3364L63.6826 29.6432C61.031 29.9695 59.152 32.3864 59.4764 35.0342L63.1694 34.5798ZM64.1351 33.3364C64.1389 33.3359 64.1428 33.3355 64.1466 33.335L63.7329 29.6373C63.7161 29.6391 63.6994 29.6411 63.6826 29.6432L64.1351 33.3364ZM64.1466 33.335L71.3614 32.5239L70.9477 28.8261L63.7329 29.6373L64.1466 33.335ZM77.1951 31.868L84.007 31.1022L83.5933 27.4044L76.7814 28.1702L77.1951 31.868Z" fill="#EFA44A"/>
<path fill-rule="evenodd" clip-rule="evenodd" d="M154.65 27.1904L167.153 118.698L168.278 127.879C168.64 130.836 166.57 133.524 163.654 133.883L85.7759 143.467C82.8599 143.825 80.2023 141.719 79.84 138.761L67.737 39.9717C67.5371 38.3399 68.6977 36.8543 70.3294 36.6535L79.9572 35.4688" fill="#FDF8F2"/>
<path d="M90.4756 5.9533C90.4756 3.69286 92.3081 1.86041 94.5685 1.86041H162.199C163.286 1.86041 164.328 2.29252 165.096 3.0615L185.055 23.0532C185.822 23.8206 186.252 24.8606 186.252 25.945V119.066C186.252 121.326 184.419 123.159 182.159 123.159H94.5685C92.3081 123.159 90.4756 121.326 90.4756 119.066V5.9533Z" fill="white" stroke="#EFA44A" stroke-width="3.72081"/>
<path d="M162.865 3.57617V20.8365C162.865 23.3025 164.86 25.3015 167.32 25.3015H179.102" stroke="#EFA44A" stroke-width="3.72081" stroke-linecap="round" stroke-linejoin="round"/>
<path d="M105.438 101.206H144.048M105.438 25.3018H144.048H105.438ZM105.438 43.1617H169.294H105.438ZM105.438 62.5099H169.294H105.438ZM105.438 81.8581H169.294H105.438Z" stroke="#EFA44A" stroke-width="3.72081" stroke-linecap="round" stroke-linejoin="round"/>
</svg>
