<svg width="30" height="30" viewBox="0 0 30 30" fill="none" xmlns="http://www.w3.org/2000/svg">
<path d="M15.0004 29C22.7326 29 29.0008 22.732 29.0008 15C29.0008 7.26801 22.7326 1 15.0004 1C7.2682 1 1 7.26801 1 15C1 22.732 7.2682 29 15.0004 29Z" stroke="#EFA44A" stroke-width="1.75003" stroke-linecap="round" stroke-linejoin="round"/>
<path d="M15.874 11.207L18.7781 14.1153C17.0394 15.8551 15.2897 17.6058 13.549 19.347L10.6445 16.4399L15.874 11.207Z" fill="#EFA44A"/>
<path d="M19.561 13.3463L16.6562 10.4355L18.0964 9C19.0521 9.95602 20.0305 10.9344 20.9988 11.9034C20.521 12.3831 20.0365 12.8692 19.561 13.3463Z" fill="#EFA44A"/>
<path d="M12.6464 20.2705L9 21C9.2461 19.7655 9.48761 18.5548 9.72797 17.3522C10.7009 18.3254 11.6681 19.2915 12.6464 20.2705Z" fill="#EFA44A"/>
</svg>
