<svg width="144" height="133" viewBox="0 0 144 133" fill="none" xmlns="http://www.w3.org/2000/svg">
<circle cx="65.4598" cy="65.4598" r="65.4598" fill="#FDF8F2"/>
<path fill-rule="evenodd" clip-rule="evenodd" d="M121.618 42.4939C142.126 46.5065 133.209 82.085 133.209 108.924C122.955 123.191 65.9757 116.503 39.1365 116.503C20.8569 110.262 31.5584 60.4164 31.5584 33.5772C31.5584 16.1271 74.804 24.2145 82.3833 42.4937C96.4128 47.0346 112.229 42.4939 121.618 42.4939Z" fill="white"/>
<path d="M86.9915 37.3951C84.8489 37.3951 82.8425 36.3473 81.6167 34.5924L76.9176 27.8503C75.5906 25.9456 73.823 24.3898 71.7653 23.3153C69.7076 22.2408 67.4207 21.6795 65.0993 21.6792H39.1367C35.3159 21.6792 31.6516 23.197 28.95 25.8987C26.2483 28.6004 24.7305 32.2646 24.7305 36.0854V104.188C24.7305 108.006 26.2497 111.674 28.9476 114.377C31.6519 117.076 35.316 118.592 39.1367 118.594H122.955C126.774 118.594 130.441 117.075 133.144 114.377C135.843 111.672 137.359 108.008 137.361 104.188V51.8013C137.361 47.9823 135.842 44.3153 133.144 41.6122C130.439 38.9132 126.775 37.3967 122.955 37.3951H86.9915ZM86.9915 45.253H122.955C124.69 45.2558 126.354 45.9466 127.582 47.174C128.809 48.4014 129.5 50.0654 129.503 51.8013V104.188C129.5 105.923 128.809 107.587 127.582 108.815C126.354 110.042 124.69 110.733 122.955 110.736H39.1367C37.4008 110.733 35.7368 110.042 34.5094 108.815C33.282 107.587 32.5912 105.923 32.5884 104.188V36.0854C32.5884 32.4708 35.522 29.5371 39.1367 29.5371H65.0993C67.2419 29.5371 69.2483 30.5849 70.4741 32.3398L75.1732 39.0819C76.4998 40.9869 78.2674 42.543 80.3252 43.6175C82.383 44.692 84.67 45.2531 86.9915 45.253Z" fill="#EFA34A"/>
<path d="M77.1172 59.6277V80.5822C77.1172 81.6242 77.5311 82.6236 78.268 83.3604C79.0048 84.0972 80.0041 84.5112 81.0462 84.5112C82.0882 84.5112 83.0875 84.0972 83.8244 83.3604C84.5612 82.6236 84.9751 81.6242 84.9751 80.5822V59.6277C84.9751 58.5857 84.5612 57.5863 83.8244 56.8495C83.0875 56.1127 82.0882 55.6987 81.0462 55.6987C80.0041 55.6987 79.0048 56.1127 78.268 56.8495C77.5311 57.5863 77.1172 58.5857 77.1172 59.6277Z" fill="#EFA34A"/>
<path d="M81.0453 98.9172C83.9385 98.9172 86.2839 96.5718 86.2839 93.6786C86.2839 90.7853 83.9385 88.4399 81.0453 88.4399C78.1521 88.4399 75.8066 90.7853 75.8066 93.6786C75.8066 96.5718 78.1521 98.9172 81.0453 98.9172Z" fill="#EFA34A"/>
</svg>
