<svg width="119" height="124" viewBox="0 0 119 124" fill="none" xmlns="http://www.w3.org/2000/svg">
<path d="M73.2617 54.7087C69.5951 58.042 69.5951 63.792 73.2617 67.1253L80.3034 73.4587C84.7201 77.417 87.2201 83.042 87.2201 88.9587V107.792H35.1367V88.9587C35.1367 83.042 37.6367 77.417 42.0534 73.4587L49.0951 67.1253C52.7617 63.792 52.7617 58.042 49.0951 54.7087L42.0534 48.3753C39.8747 46.4239 38.1325 44.0346 36.9406 41.3636C35.7488 38.6926 35.1341 35.8002 35.1367 32.8753V14.042H87.2201V32.8753C87.2201 38.792 84.7201 44.417 80.3034 48.3753L73.2617 54.7087Z" fill="#F3F3F1"/>
<path d="M110.395 105.967H118.728V110.133H110.395V105.967ZM101.02 91.3833H105.187V99.7167H101.02V91.3833ZM101.02 115.342H105.187V123.675H101.02V115.342ZM7.01172 13C3.56589 13 0.761719 10.1958 0.761719 6.75C0.761719 3.30417 3.56589 0.5 7.01172 0.5C10.4576 0.5 13.2617 3.30417 13.2617 6.75C13.2617 10.1958 10.4576 13 7.01172 13ZM7.01172 4.66667C6.45808 4.66777 5.92755 4.88876 5.53685 5.28103C5.14615 5.67329 4.92728 6.20469 4.92839 6.75833C4.92949 7.31197 5.15048 7.8425 5.54275 8.2332C5.93501 8.6239 6.46641 8.84277 7.02005 8.84167C7.57369 8.84056 8.10422 8.61957 8.49492 8.2273C8.88562 7.83504 9.10449 7.30364 9.10339 6.75C9.10228 6.19636 8.88129 5.66584 8.48902 5.27513C8.09676 4.88443 7.56536 4.66556 7.01172 4.66667Z" fill="#A4AFC1"/>
<path d="M26.8027 10.917H95.5527V17.167H26.8027V10.917ZM26.8027 104.667H95.5527V110.917H26.8027V104.667Z" fill="#EFA44A"/>
<path d="M77.8451 107.791H71.5951V100.825C71.5951 99.433 71.0535 98.1288 70.0743 97.1455L61.1785 88.2538L52.2868 97.1455C51.314 98.125 50.7661 99.4483 50.7618 100.829V107.796H44.5118V100.829C44.5118 97.7705 45.7035 94.8913 47.8701 92.7288L58.9701 81.6288C59.2603 81.3384 59.6049 81.1081 59.9842 80.9509C60.3635 80.7937 60.77 80.7128 61.1805 80.7128C61.5911 80.7128 61.9976 80.7937 62.3769 80.9509C62.7562 81.1081 63.1008 81.3384 63.391 81.6288L74.491 92.7288C76.6535 94.8788 77.8451 97.7622 77.8451 100.825V107.791ZM61.1785 52.583C60.768 52.584 60.3615 52.5035 59.9824 52.3461C59.6033 52.1888 59.2592 51.9577 58.9701 51.6663L49.1118 41.808C47.6481 40.3547 46.4877 38.6251 45.698 36.7196C44.9083 34.8141 44.5051 32.7707 44.5118 30.708C44.5118 29.8792 44.841 29.0844 45.4271 28.4983C46.0131 27.9122 46.808 27.583 47.6368 27.583H74.7201C75.5489 27.583 76.3438 27.9122 76.9298 28.4983C77.5159 29.0844 77.8451 29.8792 77.8451 30.708C77.8517 32.7713 77.4484 34.8153 76.6588 36.7214C75.8691 38.6276 74.7088 40.358 73.2451 41.8122L63.3868 51.6663C63.0974 51.9573 62.7533 52.1882 62.3743 52.3455C61.9953 52.5028 61.5888 52.5836 61.1785 52.583ZM51.2993 33.833C51.766 35.158 52.5243 36.383 53.5285 37.3913L61.1785 45.0372L68.8285 37.3872C69.8493 36.3663 70.6076 35.1538 71.0701 33.8288H51.2993V33.833Z" fill="#EFA44A"/>
<path d="M38.2617 107.792H32.0117V88.9462C32.0117 82.167 34.8992 75.6753 39.9409 71.142L46.9951 64.792C48.1117 63.792 48.7201 62.4212 48.7201 60.9212C48.7201 59.4212 48.1117 58.0545 46.9951 57.0503L39.9409 50.7003C37.4469 48.451 35.4525 45.7035 34.0867 42.6352C32.7209 39.567 32.014 36.2463 32.0117 32.8878V14.042H38.2617V32.8878C38.2617 37.8962 40.3992 42.6962 44.1242 46.0462L51.1784 52.3962C53.5867 54.567 54.9701 57.6712 54.9701 60.9128C54.9701 64.1545 53.5867 67.2587 51.1784 69.4295L44.1242 75.7795C42.2802 77.44 40.8055 79.4694 39.7956 81.7361C38.7857 84.0028 38.2631 86.4563 38.2617 88.9378V107.792ZM90.3451 107.792H84.0951V88.9462C84.0931 86.4647 83.5703 84.0114 82.5605 81.7447C81.5506 79.4781 80.0762 77.4487 78.2326 75.7878L71.1784 69.4337C68.7701 67.2628 67.3867 64.1587 67.3867 60.917C67.3867 57.6753 68.7701 54.5712 71.1784 52.4003L78.2284 46.0503C80.0724 44.3898 81.5471 42.3604 82.557 40.0937C83.5669 37.827 84.0895 35.3735 84.0909 32.892V14.042H90.3451V32.8878C90.3437 36.2453 89.6372 39.565 88.2713 42.632C86.9054 45.699 84.9105 48.445 82.4159 50.692L75.3659 57.042C74.2492 58.042 73.6409 59.4128 73.6409 60.9128C73.6409 62.4128 74.2492 63.7795 75.3659 64.7837L82.4159 71.1337C84.9093 73.3834 86.9033 76.1311 88.269 79.1992C89.6348 82.2673 90.342 85.5878 90.3451 88.9462V107.792Z" fill="#EFA44A"/>
</svg>
