<svg width="18" height="24" viewBox="0 0 18 24" fill="none" xmlns="http://www.w3.org/2000/svg">
<path d="M10.52 1.33963C10.7598 1.58313 11.0546 1.76546 11.3796 1.87126C11.7045 1.97707 12.0501 2.00327 12.3873 1.94764C13.5618 1.75368 14.6679 2.55899 14.8467 3.73822C14.8979 4.07647 15.0294 4.39752 15.2302 4.67448C15.431 4.95143 15.6953 5.17622 16.0008 5.33C17.0648 5.86485 17.4873 7.16783 16.9403 8.22721C16.7832 8.53136 16.7013 8.86868 16.7013 9.21097C16.7013 9.55327 16.7832 9.89059 16.9403 10.1947C17.4873 11.2541 17.0648 12.5571 16.0008 13.0919C15.6953 13.2457 15.431 13.4705 15.2302 13.7475C15.0294 14.0244 14.8979 14.3455 14.8467 14.6837C14.6679 15.8629 13.5618 16.6682 12.3873 16.4743C12.0501 16.4187 11.7045 16.4449 11.3795 16.5507C11.0546 16.6565 10.7598 16.8388 10.52 17.0823C9.6836 17.931 8.31639 17.931 7.48 17.0823C7.2402 16.8388 6.94541 16.6565 6.62044 16.5507C6.29547 16.4449 5.94984 16.4187 5.61264 16.4743C4.43819 16.6683 3.33208 15.863 3.15325 14.6837C3.10209 14.3455 2.97059 14.0244 2.76979 13.7475C2.56899 13.4705 2.30472 13.2457 1.99914 13.0919C0.935222 12.5571 0.512737 11.2541 1.05972 10.1947C1.21674 9.89059 1.29868 9.55327 1.29868 9.21097C1.29868 8.86868 1.21674 8.53136 1.05972 8.22721C0.512737 7.16788 0.935222 5.86485 1.99914 5.33C2.30472 5.17622 2.56898 4.95143 2.76978 4.67447C2.97059 4.39752 3.10209 4.07647 3.15325 3.73822C3.33208 2.55904 4.43819 1.75372 5.61264 1.94764C5.94984 2.00327 6.29547 1.97708 6.62044 1.87127C6.94541 1.76546 7.2402 1.58313 7.48 1.33963C8.31639 0.490957 9.68364 0.490957 10.52 1.33963Z" stroke="#E89E46" stroke-width="1.1" stroke-miterlimit="10" stroke-linecap="round" stroke-linejoin="round"/>
<path d="M13.7239 16.2598C14.0748 17.8296 14.8302 19.8809 16.438 21.9841L12.9764 20.8123L11.5441 23.2966C10.3428 21.431 9.64675 19.4318 9.24541 17.7045M4.31875 16.2813C3.96559 17.8484 3.20964 19.8907 1.60938 21.9841L5.07095 20.8123L6.50331 23.2966C7.70364 21.4324 8.39922 19.4351 8.80103 17.7091" stroke="#E89E46" stroke-width="1.1" stroke-miterlimit="10" stroke-linecap="round" stroke-linejoin="round"/>
<path d="M8.99964 14.1094C11.6994 14.1094 13.888 11.9163 13.888 9.21094C13.888 6.50561 11.6994 4.3125 8.99964 4.3125C6.2999 4.3125 4.11133 6.50561 4.11133 9.21094C4.11133 11.9163 6.2999 14.1094 8.99964 14.1094Z" stroke="#E89E46" stroke-width="1.1" stroke-miterlimit="10" stroke-linecap="round" stroke-linejoin="round"/>
<path d="M7.26953 9.07033L8.51692 10.3203L10.7311 8.10156" stroke="#E89E46" stroke-width="1.1" stroke-miterlimit="10" stroke-linecap="round" stroke-linejoin="round"/>
</svg>