<svg width="77" height="102" viewBox="0 0 77 102" fill="none" xmlns="http://www.w3.org/2000/svg">
<path d="M60.3121 13.6789C56.748 13.6789 53.8477 10.7785 53.8477 7.21445C53.8477 3.65038 56.748 0.75 60.3121 0.75C63.8761 0.75 66.7765 3.65038 66.7765 7.21445C66.7765 10.7785 63.8761 13.6789 60.3121 13.6789ZM60.3121 5.05963C59.1269 5.05963 58.1573 6.0293 58.1573 7.21445C58.1573 8.3996 59.1269 9.36926 60.3121 9.36926C61.4972 9.36926 62.4669 8.3996 62.4669 7.21445C62.4669 6.0293 61.4972 5.05963 60.3121 5.05963Z" fill="#A4AFC1"/>
<path d="M64.6655 101.263C63.6741 101.265 62.6922 101.07 61.776 100.692C60.8598 100.313 60.0272 99.7574 59.3259 99.0568L38.7647 78.4998L18.2079 99.0568C16.7898 100.473 14.8679 101.268 12.864 101.268C10.8601 101.268 8.93814 100.473 7.52007 99.0568L2.94758 94.4842C1.53353 93.0664 0.73909 91.1458 0.738282 89.1433C0.737474 87.1409 1.53036 85.2197 2.94327 83.8007L23.5044 63.2394L2.94758 42.6824C1.53279 41.2638 0.738286 39.342 0.738286 37.3385C0.738286 35.3349 1.53279 33.4132 2.94758 31.9945L7.52007 27.422C8.93795 26.008 10.8585 25.2135 12.8609 25.2127C14.8634 25.2119 16.7846 26.0048 18.2036 27.4177L38.7647 47.979L59.3216 27.422C60.7396 26.0062 62.6616 25.2109 64.6655 25.2109C66.6694 25.2109 68.5913 26.0062 70.0094 27.422L74.5819 31.9945C77.5254 34.938 77.5297 39.7346 74.5862 42.6781L54.0251 63.2394L74.5819 83.7963L74.5862 83.8007C75.9991 85.2197 76.792 87.1409 76.7912 89.1433C76.7904 91.1458 75.9959 93.0664 74.5819 94.4842L70.0094 99.0568C69.3074 99.7578 68.4741 100.313 67.5571 100.692C66.6402 101.071 65.6575 101.265 64.6655 101.263ZM38.7647 70.6951C39.5922 70.6951 40.4196 71.0097 41.0488 71.6432L63.8898 94.4842C64.0961 94.6872 64.3739 94.8009 64.6633 94.8009C64.9527 94.8009 65.2306 94.6872 65.4369 94.4842L70.0094 89.9117C70.212 89.7041 70.3251 89.4252 70.3243 89.1351C70.3235 88.845 70.2089 88.5668 70.0051 88.3602L47.1685 65.5235C46.8681 65.2233 46.6298 64.8669 46.4673 64.4746C46.3047 64.0823 46.221 63.6619 46.221 63.2372C46.221 62.8126 46.3047 62.3921 46.4673 61.9998C46.6298 61.6075 46.8681 61.2511 47.1685 60.951L70.0094 38.1099C70.2113 37.903 70.3243 37.6254 70.3243 37.3363C70.3243 37.0473 70.2113 36.7696 70.0094 36.5628L65.4369 31.9902C65.2293 31.7876 64.9504 31.6746 64.6603 31.6754C64.3702 31.6762 64.092 31.7908 63.8854 31.9945L41.0488 54.8356C40.7487 55.136 40.3923 55.3742 40 55.5368C39.6077 55.6994 39.1872 55.783 38.7626 55.783C38.3379 55.783 37.9175 55.6994 37.5252 55.5368C37.1329 55.3742 36.7765 55.136 36.4763 54.8356L13.6354 31.9945C13.4291 31.7916 13.1512 31.6779 12.8618 31.6779C12.5724 31.6779 12.2946 31.7916 12.0883 31.9945L7.51576 36.5671C7.31314 36.7747 7.20008 37.0536 7.20089 37.3437C7.2017 37.6338 7.3163 37.912 7.52007 38.1185L30.3567 60.9553C30.657 61.2554 30.8953 61.6119 31.0579 62.0042C31.2204 62.3964 31.3041 62.8169 31.3041 63.2415C31.3041 63.6662 31.2204 64.0867 31.0579 64.4789C30.8953 64.8712 30.657 65.2276 30.3567 65.5278L7.51576 88.3689C7.31386 88.5757 7.20084 88.8534 7.20084 89.1424C7.20084 89.4315 7.31386 89.7091 7.51576 89.916L12.0883 94.4885C12.2959 94.6912 12.5748 94.8042 12.8649 94.8034C13.155 94.8026 13.4332 94.688 13.6397 94.4842L36.4763 71.6475C36.7763 71.346 37.1329 71.1066 37.5256 70.9432C37.9183 70.7798 38.3394 70.6954 38.7647 70.6951Z" fill="#EFA44A"/>
</svg>
