<svg width="227" height="80" viewBox="0 0 227 80" fill="none" xmlns="http://www.w3.org/2000/svg">
<path d="M164.367 52.3202C163.897 52.3202 163.534 52.1921 163.278 51.936C163.022 51.6584 162.894 51.2848 162.894 50.8151V32.0175H155.945C155.475 32.0175 155.101 31.9214 154.824 31.7293C154.568 31.5158 154.44 31.2169 154.44 30.8326C154.44 30 154.941 29.5837 155.945 29.5837H172.885C173.355 29.5837 173.718 29.6905 173.974 29.904C174.23 30.1175 174.358 30.427 174.358 30.8326C174.358 31.1956 174.23 31.4838 173.974 31.6973C173.718 31.9108 173.355 32.0175 172.885 32.0175H165.936V50.8151C165.936 51.2848 165.797 51.6584 165.52 51.936C165.242 52.1921 164.858 52.3202 164.367 52.3202ZM180.354 52.3202C179.906 52.3202 179.543 52.1921 179.265 51.936C179.009 51.6584 178.881 51.2848 178.881 50.8151V30.7686C178.881 30.2989 179.009 29.936 179.265 29.6798C179.543 29.4023 179.906 29.2635 180.354 29.2635C180.824 29.2635 181.197 29.4023 181.475 29.6798C181.752 29.936 181.891 30.2989 181.891 30.7686V50.8151C181.891 51.2848 181.752 51.6584 181.475 51.936C181.197 52.1921 180.824 52.3202 180.354 52.3202ZM192.004 52C190.574 52 189.464 51.6264 188.674 50.8792C187.905 50.132 187.521 49.0966 187.521 47.7729V30.7686C187.521 30.2989 187.649 29.936 187.905 29.6798C188.183 29.4023 188.556 29.2635 189.026 29.2635C189.496 29.2635 189.869 29.4023 190.147 29.6798C190.424 29.936 190.563 30.2989 190.563 30.7686V47.805C190.563 48.3387 190.702 48.7657 190.98 49.0859C191.257 49.4061 191.641 49.5662 192.132 49.5662H202.668C203.671 49.5662 204.173 49.9719 204.173 50.7831C204.173 51.1674 204.034 51.4663 203.757 51.6798C203.501 51.8933 203.138 52 202.668 52H192.004ZM212.142 52C210.755 52 209.666 51.6264 208.876 50.8792C208.086 50.132 207.691 49.0966 207.691 47.7729V33.7147C207.691 32.4338 208.075 31.4304 208.844 30.7045C209.613 29.9573 210.68 29.5837 212.046 29.5837H221.974C222.977 29.5837 223.479 30 223.479 30.8326C223.479 31.1956 223.34 31.4838 223.062 31.6973C222.806 31.9108 222.443 32.0175 221.974 32.0175H212.303C211.812 32.0175 211.417 32.1776 211.118 32.4978C210.84 32.8181 210.701 33.2451 210.701 33.7788V39.3188H219.54C220.543 39.3188 221.045 39.7351 221.045 40.5677C221.045 40.952 220.906 41.2509 220.629 41.4644C220.372 41.6778 220.009 41.7846 219.54 41.7846H210.701V47.805C210.701 48.3387 210.84 48.7657 211.118 49.0859C211.417 49.4061 211.812 49.5662 212.303 49.5662H222.678C223.169 49.5662 223.543 49.673 223.799 49.8865C224.055 50.0786 224.183 50.3775 224.183 50.7831C224.183 51.1674 224.044 51.4663 223.767 51.6798C223.511 51.8933 223.148 52 222.678 52H212.142Z" fill="#E89E46"/>
<g clip-path="url(#clip0_161_503)">
<path d="M122.546 57.0835C124.003 55.4779 125.303 54.1699 126.46 52.75C127.043 52.0371 127.573 51.713 128.529 51.7749C131.108 51.9457 133.014 53.1978 134.524 55.2098C136.273 57.5195 138.281 59.4461 141.128 60.268C141.819 60.4683 142.515 60.6363 143.364 60.8572C141.421 64.1722 138.98 67.1609 136.127 69.7157C128.188 76.8625 118.853 80.3387 108.262 79.9705C89.4235 79.3165 73.9275 65.6503 70.7275 47.1497C67.2302 26.9789 78.6372 8.08655 97.6217 1.91775C119.835 -5.29686 143.442 8.53728 148.333 31.6718C150.25 40.7629 149.067 49.4947 145.098 57.873C144.579 58.9659 143.955 59.2723 142.821 59.0013C140.379 58.4121 138.257 57.2926 136.742 55.2452C134.722 52.5202 132.391 50.3638 128.826 50.0839C128.704 50.0839 128.593 49.9336 128.392 49.7893C131.108 44.1419 131.546 38.3355 129.316 32.4259C128.158 29.2394 126.197 26.4135 123.627 24.2274C121.721 26.0332 119.908 27.7242 118.139 29.4564C117.887 29.7445 117.75 30.1174 117.755 30.5022C117.964 39.0101 118.734 47.4296 121.779 55.472C121.937 55.8697 122.149 56.2468 122.546 57.0835ZM112.479 33.7899C105.048 38.3325 97.3944 41.906 88.8173 43.6411C89.1903 44.9727 89.4439 46.1658 89.8723 47.2911C90.0996 47.8212 90.4983 48.2575 91.0031 48.5284C97.852 51.9958 105.016 53.5778 112.689 52.2285C113.893 52.0164 114.193 51.6924 113.96 50.4433C113.477 47.8961 113.122 45.326 112.896 42.7426C112.648 39.8644 112.616 36.9715 112.479 33.7899ZM91.5248 50.405C95.6516 59.5551 108.49 63.8473 116.784 59.832C116.152 57.9879 115.467 56.1584 114.907 54.2937C114.616 53.3303 114.158 53.1153 113.214 53.3038C108.385 54.2393 103.408 54.0448 98.6651 52.7352C96.2607 52.0989 93.9204 51.1945 91.5248 50.405ZM114.138 19.3754C102.853 16.3882 91.6443 24.9992 90.1375 32.9739C99.0177 30.1075 106.989 25.774 114.138 19.3754ZM122.555 23.4231C120.497 21.4228 120.482 21.4376 118.623 23.0343C110.372 30.1574 100.799 35.5473 90.4639 38.8893C88.3684 39.5698 88.1907 39.8497 88.9397 42.4244C101.918 39.3106 113.31 33.4423 122.555 23.4231ZM118.964 21.1017C116.181 19.4108 116.093 19.399 113.966 21.196C107.266 26.8828 99.5336 31.1946 91.2013 33.8901C89.1058 34.5735 88.5783 35.4809 88.9455 38.1293C100.04 34.6864 110.276 28.8802 118.964 21.1017ZM116.58 30.9294C114.802 31.875 113.721 32.7529 113.727 34.821C113.727 40.2828 114.018 45.7033 115.304 51.0236C115.91 53.5336 116.836 55.964 117.635 58.4239C117.903 59.2487 118.416 59.4844 119.194 58.9865C119.911 58.5299 120.651 58.1028 121.342 57.6962C117.798 49.0617 116.889 40.1738 116.58 30.9294Z" fill="#E89E46"/>
<path d="M112.481 33.79C112.618 36.9717 112.65 39.8646 112.897 42.7428C113.123 45.3261 113.479 47.8963 113.961 50.4434C114.194 51.6925 113.894 52.0166 112.69 52.2287C105.017 53.5779 97.8531 51.996 91.0042 48.5286C90.4994 48.2576 90.1007 47.8214 89.8734 47.2913C89.445 46.1659 89.1914 44.9728 88.8184 43.6413C97.3984 41.9061 105.049 38.3327 112.481 33.79Z" fill="white"/>
<path d="M91.5234 50.405C93.9191 51.1945 96.2594 52.0872 98.6638 52.7382C103.407 54.0478 108.384 54.2423 113.213 53.3068C114.157 53.1241 114.614 53.3333 114.906 54.2966C115.465 56.1614 116.15 57.9908 116.783 59.835C108.488 63.8474 95.6473 59.5551 91.5234 50.405Z" fill="white"/>
<path d="M114.137 19.3754C106.988 25.774 99.017 30.1075 90.1367 32.9739C91.6435 24.9963 102.852 16.3883 114.137 19.3754Z" fill="white"/>
<path d="M122.554 23.4233C113.31 33.4395 101.917 39.3108 88.9395 42.4187C88.1905 39.8499 88.3567 39.57 90.4638 38.8836C100.799 35.5416 110.372 30.1517 118.623 23.0286C120.482 21.4377 120.497 21.423 122.554 23.4233Z" fill="white"/>
<path d="M118.963 21.1019C110.276 28.8804 100.04 34.6866 88.9448 38.1295C88.5747 35.4781 89.1051 34.5737 91.2006 33.8903C99.5329 31.1948 107.265 26.883 113.965 21.1962C116.093 19.3992 116.18 19.3992 118.963 21.1019Z" fill="white"/>
<path d="M116.579 30.9294C116.888 40.1738 117.785 49.0617 121.344 57.6874C120.65 58.0999 119.913 58.5211 119.196 58.9777C118.418 59.4756 117.905 59.2399 117.637 58.4151C116.835 55.9552 115.909 53.5248 115.305 51.0149C114.026 45.7122 113.737 40.2828 113.729 34.8122C113.717 32.753 114.801 31.8751 116.579 30.9294Z" fill="white"/>
</g>
<path d="M11.1441 52.3202C10.6744 52.3202 10.3115 52.1921 10.0553 51.936C9.79911 51.6584 9.67102 51.2848 9.67102 50.8151V32.0175H2.72198C2.2523 32.0175 1.8787 31.9214 1.60116 31.7293C1.34498 31.5158 1.21688 31.2169 1.21688 30.8326C1.21688 30 1.71858 29.5837 2.72198 29.5837H19.6623C20.1319 29.5837 20.4949 29.6905 20.7511 29.904C21.0072 30.1175 21.1353 30.427 21.1353 30.8326C21.1353 31.1956 21.0072 31.4838 20.7511 31.6973C20.4949 31.9108 20.1319 32.0175 19.6623 32.0175H12.7132V50.8151C12.7132 51.2848 12.5745 51.6584 12.2969 51.936C12.0194 52.1921 11.6351 52.3202 11.1441 52.3202ZM29.1169 52C27.7292 52 26.6404 51.6264 25.8505 50.8792C25.0606 50.132 24.6656 49.0966 24.6656 47.7729V33.7147C24.6656 32.4338 25.0499 31.4304 25.8185 30.7045C26.587 29.9573 27.6545 29.5837 29.0208 29.5837H38.948C39.9514 29.5837 40.4531 30 40.4531 30.8326C40.4531 31.1956 40.3143 31.4838 40.0368 31.6973C39.7806 31.9108 39.4177 32.0175 38.948 32.0175H29.277C28.786 32.0175 28.391 32.1776 28.0921 32.4978C27.8146 32.8181 27.6758 33.2451 27.6758 33.7788V39.3188H36.5142C37.5176 39.3188 38.0193 39.7351 38.0193 40.5677C38.0193 40.952 37.8806 41.2509 37.603 41.4644C37.3469 41.6778 36.9839 41.7846 36.5142 41.7846H27.6758V47.805C27.6758 48.3387 27.8146 48.7657 28.0921 49.0859C28.391 49.4061 28.786 49.5662 29.277 49.5662H39.6525C40.1435 49.5662 40.5172 49.673 40.7733 49.8865C41.0295 50.0786 41.1576 50.3775 41.1576 50.7831C41.1576 51.1674 41.0189 51.4663 40.7413 51.6798C40.4851 51.8933 40.1222 52 39.6525 52H29.1169ZM63.2224 50.1106C63.4145 50.3668 63.5106 50.655 63.5106 50.9753C63.5106 51.4663 63.3078 51.8399 62.9021 52.0961C62.6033 52.2455 62.3578 52.3202 62.1656 52.3202C61.76 52.3202 61.3437 52.064 60.9167 51.5517L53.7435 42.7133L46.5703 51.5517C46.1647 52.064 45.7484 52.3202 45.3214 52.3202C45.1506 52.3202 44.9158 52.2455 44.6169 52.0961C44.2112 51.8399 44.0084 51.4663 44.0084 50.9753C44.0084 50.655 44.1045 50.3668 44.2966 50.1106L52.0142 40.5677L44.7129 31.6012C44.4995 31.3237 44.3927 31.0034 44.3927 30.6405C44.3927 30.1068 44.5849 29.7332 44.9691 29.5197C45.204 29.3702 45.4495 29.2955 45.7057 29.2955C46.154 29.2955 46.5596 29.5304 46.9226 30L53.7435 38.4221L60.5645 30C60.9487 29.5304 61.3544 29.2955 61.7813 29.2955C62.0375 29.2955 62.283 29.3702 62.5179 29.5197C62.9235 29.7972 63.1263 30.1708 63.1263 30.6405C63.1263 31.0248 63.0089 31.345 62.7741 31.6012L55.5048 40.5677L63.2224 50.1106Z" fill="#E89E46"/>
<defs>
<clipPath id="clip0_161_503">
<rect width="79.1148" height="80" fill="white" transform="translate(70.1035)"/>
</clipPath>
</defs>
</svg>
