<svg width="357" height="360" viewBox="0 0 357 360" fill="none" xmlns="http://www.w3.org/2000/svg">
<g clip-path="url(#clip0_268_877)">
<path d="M236.412 256.877C242.96 249.652 248.8 243.766 253.999 237.377C256.618 234.168 259.002 232.71 263.297 232.989C274.887 233.758 283.452 239.392 290.236 248.446C298.093 258.839 307.116 267.509 319.911 271.208C323.014 272.109 326.144 272.865 329.955 273.859C321.229 288.777 310.258 302.226 297.438 313.722C261.765 345.883 219.819 361.526 172.229 359.869C87.5773 356.926 17.9466 295.428 3.56735 212.176C-12.1477 121.407 39.1095 36.3911 124.416 8.63146C224.232 -23.8343 330.309 38.4194 352.284 142.525C360.901 183.435 355.584 222.728 337.747 260.43C335.416 265.348 332.614 266.727 327.519 265.507C316.545 262.856 307.011 257.818 300.202 248.605C291.126 236.343 280.649 226.639 264.633 225.379C264.083 225.379 263.585 224.703 262.682 224.054C274.887 198.64 276.852 172.511 266.833 145.918C261.628 131.579 252.816 118.862 241.27 109.025C232.705 117.151 224.56 124.761 216.611 132.556C215.476 133.852 214.86 135.53 214.882 137.262C215.825 175.547 219.282 213.435 232.967 249.626C233.675 251.415 234.631 253.112 236.412 256.877ZM191.179 152.056C157.784 172.498 123.394 188.578 84.8533 196.387C86.5296 202.379 87.6689 207.748 89.594 212.812C90.6153 215.197 92.407 217.16 94.6752 218.38C125.45 233.983 157.64 241.102 192.121 235.03C197.53 234.076 198.879 232.617 197.831 226.997C195.663 215.534 194.068 203.968 193.051 192.343C191.938 179.392 191.794 166.373 191.179 152.056ZM97.0194 226.824C115.563 268 173.25 287.315 210.521 269.246C207.679 260.947 204.602 252.715 202.087 244.323C200.778 239.988 198.722 239.02 194.479 239.869C172.78 244.079 150.417 243.203 129.104 237.31C118.3 234.447 107.784 230.377 97.0194 226.824ZM198.63 87.1909C147.923 73.7486 97.5563 112.498 90.7857 148.384C130.689 135.485 166.506 115.985 198.63 87.1909ZM236.451 105.406C227.205 96.4044 227.14 96.4706 218.785 103.656C181.707 135.71 138.693 159.965 92.2525 175.004C82.8365 178.066 82.0377 179.325 85.4034 190.912C143.719 176.899 194.911 150.492 236.451 105.406ZM220.317 94.9594C207.81 87.35 207.417 87.297 197.857 95.3836C167.752 120.974 133.007 140.377 95.5657 152.507C86.1498 155.582 83.7795 159.666 85.4295 171.583C135.283 156.09 181.278 129.962 220.317 94.9594ZM209.604 139.184C201.616 143.439 196.757 147.39 196.784 156.696C196.784 181.274 198.093 205.666 203.868 229.608C206.592 240.903 210.757 251.84 214.345 262.909C215.55 266.621 217.855 267.681 221.351 265.441C224.573 263.386 227.899 261.464 231.003 259.635C215.078 220.779 210.993 180.784 209.604 139.184Z" fill="white"/>
<path d="M191.167 152.055C191.783 166.372 191.927 179.39 193.04 192.342C194.056 203.967 195.652 215.533 197.82 226.995C198.867 232.616 197.519 234.074 192.11 235.029C157.629 241.101 125.439 233.982 94.6637 218.379C92.3954 217.159 90.6038 215.196 89.5825 212.811C87.6574 207.747 86.5181 202.378 84.8418 196.386C123.396 188.577 157.773 172.497 191.167 152.055Z" fill="#E89E46"/>
<path d="M97.0078 226.823C107.773 230.375 118.289 234.392 129.093 237.322C150.406 243.215 172.768 244.09 194.467 239.88C198.71 239.059 200.766 240 202.076 244.335C204.59 252.726 207.668 260.959 210.51 269.257C173.239 287.313 115.538 267.998 97.0078 226.823Z" fill="#E89E46"/>
<path d="M198.6 87.1913C166.476 115.985 130.659 135.486 90.7559 148.384C97.5264 112.485 147.893 73.749 198.6 87.1913Z" fill="#E89E46"/>
<path d="M236.448 105.403C194.908 150.476 143.716 176.897 85.4001 190.883C82.0345 179.323 82.7809 178.063 92.2492 174.975C138.689 159.936 181.704 135.681 218.781 103.627C227.137 96.4681 227.202 96.4019 236.448 105.403Z" fill="#E89E46"/>
<path d="M220.295 94.9569C181.256 129.96 135.261 156.088 85.4073 171.581C83.7441 159.65 86.1276 155.58 95.5435 152.504C132.984 140.375 167.73 120.972 197.835 95.3811C207.395 87.2945 207.788 87.2945 220.295 94.9569Z" fill="#E89E46"/>
<path d="M209.589 139.182C210.978 180.782 215.011 220.778 231.001 259.593C227.884 261.449 224.571 263.345 221.35 265.4C217.853 267.64 215.548 266.58 214.343 262.868C210.742 251.798 206.577 240.862 203.867 229.567C198.117 205.705 196.821 181.273 196.782 156.655C196.729 147.388 201.601 143.438 209.589 139.182Z" fill="#E89E46"/>
</g>
<defs>
<clipPath id="clip0_268_877">
<rect width="355.5" height="360" fill="white" transform="translate(0.75)"/>
</clipPath>
</defs>
</svg>
