<svg width="22" height="22" viewBox="0 0 22 22" fill="none" xmlns="http://www.w3.org/2000/svg">
<path d="M20.0661 5.61885C21.7022 8.81108 21.1838 12.8228 18.511 15.4958C15.1951 18.8119 9.81893 18.8119 6.50303 15.4958M6.50303 15.4958C3.1871 12.1797 3.1871 6.8032 6.50303 3.48709C9.28178 0.708149 13.5073 0.257987 16.7548 2.13661M6.50303 15.4958L4.32287 17.6769M9.25055 14.954C7.39299 13.8441 6.14912 11.8132 6.14912 9.4923C6.14912 5.98075 8.99563 3.13404 12.5069 3.13404C16.0182 3.13404 18.8648 5.98075 18.8648 9.4923C18.8648 10.2713 18.7246 11.0177 18.4682 11.7075M9.25055 14.954C10.2032 15.5235 11.317 15.8505 12.507 15.8505C13.6969 15.8505 14.8107 15.5235 15.7634 14.9541V11.7792C15.7634 11.2063 15.2995 10.7419 14.7267 10.7419H10.2872C9.71438 10.7419 9.25056 11.2063 9.25056 11.7792L9.25055 14.954ZM1.39668 20.6033C0.867774 20.0743 0.867774 19.2167 1.39668 18.6878L4.40989 15.6744L6.32526 17.5899L3.31204 20.6033C2.78314 21.1322 1.92562 21.1322 1.39668 20.6033ZM15.1492 8.09966C15.1492 9.55897 13.9662 10.742 12.507 10.742C11.0478 10.742 9.86484 9.55897 9.86484 8.09966C9.86484 6.64035 11.0478 5.45734 12.507 5.45734C13.9662 5.45734 15.1492 6.64035 15.1492 8.09966Z" stroke="#393846" stroke-miterlimit="10" stroke-linecap="round" stroke-linejoin="round"/>
</svg>
